# xmcd
#
# Track frame offsets:
# 150
# 17890
# 33792
# 46329
# 65884
# 80699
# 94349
# 110862
# 127200
# 144144
# 159664
# 173153
#
# Disc length: 2529 seconds
#
#
# Revision: 0
# Processed by: cddbd v1.5.2PL0 Copyright (c) Steve Scherf et al.
# Submitted via: FreeRIP 2.951 
#
DISCID=aa09df0c
DTITLE=Marquinhos Satã- Pura Semente  - Pura Semente 
DYEAR=1900
DGENRE=Samba
TTITLE0=Pura Semente
TTITLE1=Pavio Curto
TTITLE2=O Lugar
TTITLE3=Por  Incrivel que Pareça
TTITLE4=Um Samba Sem Dó
TTITLE5=Meu Querer
TTITLE6=Não Chora Meu bem
TTITLE7=Desforra
TTITLE8=Festa Da Dentadura
TTITLE9=Simples Poeta
TTITLE10=Escorregar -e Não Cair
TTITLE11=Qua qua qua
EXTD=
EXTT0=
EXTT1=
EXTT2=
EXTT3=
EXTT4=
EXTT5=
EXTT6=
EXTT7=
EXTT8=
EXTT9=
EXTT10=
EXTT11=
PLAYORDER=
